<?xml version="1.0" standalone="no"?>
<!DOCTYPE svg PUBLIC "-//W3C//DTD SVG 20010904//EN"
 "http://www.w3.org/TR/2001/REC-SVG-20010904/DTD/svg10.dtd">
<svg version="1.0" xmlns="http://www.w3.org/2000/svg"
 width="263.000000pt" height="263.000000pt" viewBox="0 0 263.000000 263.000000"
 preserveAspectRatio="xMidYMid meet">
<metadata>
Created by potrace 1.11, written by Peter Selinger 2001-2013
</metadata>
<g transform="translate(0.000000,263.000000) scale(0.100000,-0.100000)"
fill="#000000" stroke="none">
<path d="M1403 2450 c-64 -28 -103 -111 -84 -177 5 -18 39 -75 76 -128 l67
-95 21 27 c12 16 24 30 27 33 20 18 90 110 103 135 16 33 16 95 -1 137 -29 70
-130 103 -209 68z"/>
<path d="M1070 2131 c-48 -40 -47 -77 3 -155 23 -36 44 -66 47 -66 3 0 25 25
49 56 55 70 62 117 25 158 -14 14 -30 26 -37 27 -7 0 -22 2 -34 3 -13 2 -36
-9 -53 -23z"/>
<path d="M1257 1829 c-24 -24 -28 -35 -23 -60 6 -32 61 -119 76 -119 10 0 77
90 81 110 16 78 -77 126 -134 69z"/>
<path d="M1212 1579 c-50 -19 -52 -87 -3 -117 l28 -17 -21 -32 c-12 -17 -52
-75 -91 -129 -38 -54 -77 -108 -85 -121 -8 -12 -48 -68 -88 -124 -115 -160
-143 -231 -143 -358 0 -100 25 -184 86 -286 25 -42 124 -127 182 -156 26 -13
50 -26 53 -29 3 -3 10 -5 15 -5 6 -1 35 -6 65 -13 30 -6 71 -12 90 -13 49 -2
161 26 220 56 27 14 52 25 55 25 15 1 104 94 136 144 55 84 79 156 83 249 4
94 -14 181 -52 252 -15 27 -105 159 -201 293 -95 134 -172 244 -170 246 2 1
16 10 31 19 44 27 40 98 -6 114 -30 9 -159 11 -184 2z m378 -629 c0 -6 12 -27
26 -45 40 -53 72 -158 69 -229 -5 -101 -49 -202 -115 -265 -31 -29 -110 -84
-110 -76 0 3 -14 -2 -32 -11 -34 -18 -169 -24 -223 -10 -95 24 -207 118 -247
206 -39 86 -47 181 -23 267 24 84 32 92 102 98 92 7 165 17 253 34 30 6 66 13
80 16 13 3 42 7 65 11 22 3 41 6 42 7 1 1 26 3 57 5 36 2 56 -1 56 -8z"/>
</g>
</svg>
